<mxfile host="app.diagrams.net" modified="2023-10-26T11:26:59.024Z" agent="Mozilla/5.0 (Windows NT 10.0; Win64; x64) AppleWebKit/537.36 (KHTML, like Gecko) Chrome/118.0.0.0 Safari/537.36" etag="n6D0GE_2d_tx4d6TrIXP" version="22.0.8" type="github">
  <diagram id="C5RBs43oDa-KdzZeNtuy" name="Page-1">
    <mxGraphModel dx="2514" dy="929" grid="1" gridSize="10" guides="1" tooltips="1" connect="1" arrows="1" fold="1" page="1" pageScale="1" pageWidth="827" pageHeight="1169" math="0" shadow="0">
      <root>
        <mxCell id="WIyWlLk6GJQsqaUBKTNV-0" />
        <mxCell id="WIyWlLk6GJQsqaUBKTNV-1" parent="WIyWlLk6GJQsqaUBKTNV-0" />
        <mxCell id="jLqvvXUT3RwbvUkJ_NoB-17" style="edgeStyle=orthogonalEdgeStyle;rounded=0;orthogonalLoop=1;jettySize=auto;html=1;exitX=0.5;exitY=1;exitDx=0;exitDy=0;entryX=0.5;entryY=0;entryDx=0;entryDy=0;endArrow=none;endFill=0;" parent="WIyWlLk6GJQsqaUBKTNV-1" source="jLqvvXUT3RwbvUkJ_NoB-0" target="jLqvvXUT3RwbvUkJ_NoB-16" edge="1">
          <mxGeometry relative="1" as="geometry" />
        </mxCell>
        <mxCell id="jLqvvXUT3RwbvUkJ_NoB-26" style="edgeStyle=orthogonalEdgeStyle;rounded=0;orthogonalLoop=1;jettySize=auto;html=1;exitX=0.75;exitY=1;exitDx=0;exitDy=0;entryX=0;entryY=0.5;entryDx=0;entryDy=0;endArrow=none;endFill=0;" parent="WIyWlLk6GJQsqaUBKTNV-1" source="jLqvvXUT3RwbvUkJ_NoB-0" target="jLqvvXUT3RwbvUkJ_NoB-25" edge="1">
          <mxGeometry relative="1" as="geometry" />
        </mxCell>
        <mxCell id="jLqvvXUT3RwbvUkJ_NoB-77" style="rounded=0;orthogonalLoop=1;jettySize=auto;html=1;exitX=0;exitY=1;exitDx=0;exitDy=0;entryX=1;entryY=0;entryDx=0;entryDy=0;endArrow=none;endFill=0;" parent="WIyWlLk6GJQsqaUBKTNV-1" source="jLqvvXUT3RwbvUkJ_NoB-0" target="jLqvvXUT3RwbvUkJ_NoB-78" edge="1">
          <mxGeometry relative="1" as="geometry" />
        </mxCell>
        <mxCell id="W27LJ35027B_uGd5LRGq-25" style="edgeStyle=orthogonalEdgeStyle;rounded=0;orthogonalLoop=1;jettySize=auto;html=1;exitX=1;exitY=1;exitDx=0;exitDy=0;entryX=0.5;entryY=0;entryDx=0;entryDy=0;endArrow=none;endFill=0;" parent="WIyWlLk6GJQsqaUBKTNV-1" source="jLqvvXUT3RwbvUkJ_NoB-0" target="jLqvvXUT3RwbvUkJ_NoB-25" edge="1">
          <mxGeometry relative="1" as="geometry" />
        </mxCell>
        <mxCell id="3NceoRWMFwt2miOS7xl8-22" style="edgeStyle=orthogonalEdgeStyle;rounded=0;orthogonalLoop=1;jettySize=auto;html=1;exitX=1;exitY=0.75;exitDx=0;exitDy=0;entryX=0.75;entryY=0;entryDx=0;entryDy=0;endArrow=none;endFill=0;" edge="1" parent="WIyWlLk6GJQsqaUBKTNV-1" source="jLqvvXUT3RwbvUkJ_NoB-0" target="3NceoRWMFwt2miOS7xl8-46">
          <mxGeometry relative="1" as="geometry">
            <mxPoint x="690" y="669.9999999999998" as="targetPoint" />
          </mxGeometry>
        </mxCell>
        <mxCell id="jLqvvXUT3RwbvUkJ_NoB-0" value="User" style="rounded=0;whiteSpace=wrap;html=1;" parent="WIyWlLk6GJQsqaUBKTNV-1" vertex="1">
          <mxGeometry x="270" y="190" width="120" height="60" as="geometry" />
        </mxCell>
        <mxCell id="jLqvvXUT3RwbvUkJ_NoB-1" value="name" style="ellipse;whiteSpace=wrap;html=1;" parent="WIyWlLk6GJQsqaUBKTNV-1" vertex="1">
          <mxGeometry x="140" y="170" width="60" height="40" as="geometry" />
        </mxCell>
        <mxCell id="jLqvvXUT3RwbvUkJ_NoB-2" value="" style="endArrow=none;html=1;rounded=0;entryX=1;entryY=1;entryDx=0;entryDy=0;exitX=0;exitY=0.5;exitDx=0;exitDy=0;" parent="WIyWlLk6GJQsqaUBKTNV-1" source="jLqvvXUT3RwbvUkJ_NoB-0" target="jLqvvXUT3RwbvUkJ_NoB-1" edge="1">
          <mxGeometry width="50" height="50" relative="1" as="geometry">
            <mxPoint x="380" y="390" as="sourcePoint" />
            <mxPoint x="430" y="340" as="targetPoint" />
          </mxGeometry>
        </mxCell>
        <mxCell id="jLqvvXUT3RwbvUkJ_NoB-3" value="surname" style="ellipse;whiteSpace=wrap;html=1;" parent="WIyWlLk6GJQsqaUBKTNV-1" vertex="1">
          <mxGeometry x="200" y="90" width="60" height="40" as="geometry" />
        </mxCell>
        <mxCell id="jLqvvXUT3RwbvUkJ_NoB-4" style="rounded=0;orthogonalLoop=1;jettySize=auto;html=1;exitX=0.5;exitY=1;exitDx=0;exitDy=0;entryX=0.087;entryY=-0.04;entryDx=0;entryDy=0;entryPerimeter=0;endArrow=none;endFill=0;" parent="WIyWlLk6GJQsqaUBKTNV-1" source="jLqvvXUT3RwbvUkJ_NoB-3" target="jLqvvXUT3RwbvUkJ_NoB-0" edge="1">
          <mxGeometry relative="1" as="geometry" />
        </mxCell>
        <mxCell id="jLqvvXUT3RwbvUkJ_NoB-6" style="edgeStyle=orthogonalEdgeStyle;rounded=0;orthogonalLoop=1;jettySize=auto;html=1;exitX=0.5;exitY=1;exitDx=0;exitDy=0;entryX=0.75;entryY=0;entryDx=0;entryDy=0;endArrow=none;endFill=0;" parent="WIyWlLk6GJQsqaUBKTNV-1" source="jLqvvXUT3RwbvUkJ_NoB-5" target="jLqvvXUT3RwbvUkJ_NoB-0" edge="1">
          <mxGeometry relative="1" as="geometry">
            <Array as="points">
              <mxPoint x="330" y="190" />
            </Array>
          </mxGeometry>
        </mxCell>
        <mxCell id="jLqvvXUT3RwbvUkJ_NoB-5" value="&lt;u&gt;username&lt;/u&gt;" style="ellipse;whiteSpace=wrap;html=1;" parent="WIyWlLk6GJQsqaUBKTNV-1" vertex="1">
          <mxGeometry x="290" y="80" width="80" height="40" as="geometry" />
        </mxCell>
        <mxCell id="jLqvvXUT3RwbvUkJ_NoB-7" value="email" style="ellipse;whiteSpace=wrap;html=1;" parent="WIyWlLk6GJQsqaUBKTNV-1" vertex="1">
          <mxGeometry x="400" y="80" width="70" height="40" as="geometry" />
        </mxCell>
        <mxCell id="jLqvvXUT3RwbvUkJ_NoB-11" style="rounded=0;orthogonalLoop=1;jettySize=auto;html=1;exitX=0;exitY=0.5;exitDx=0;exitDy=0;entryX=1;entryY=0.25;entryDx=0;entryDy=0;endArrow=none;endFill=0;" parent="WIyWlLk6GJQsqaUBKTNV-1" source="jLqvvXUT3RwbvUkJ_NoB-8" target="jLqvvXUT3RwbvUkJ_NoB-0" edge="1">
          <mxGeometry relative="1" as="geometry" />
        </mxCell>
        <mxCell id="jLqvvXUT3RwbvUkJ_NoB-8" value="birth date" style="ellipse;whiteSpace=wrap;html=1;" parent="WIyWlLk6GJQsqaUBKTNV-1" vertex="1">
          <mxGeometry x="470" y="120" width="66" height="40" as="geometry" />
        </mxCell>
        <mxCell id="jLqvvXUT3RwbvUkJ_NoB-12" style="rounded=0;orthogonalLoop=1;jettySize=auto;html=1;exitX=0;exitY=0.5;exitDx=0;exitDy=0;entryX=1;entryY=0.5;entryDx=0;entryDy=0;endArrow=none;endFill=0;" parent="WIyWlLk6GJQsqaUBKTNV-1" source="jLqvvXUT3RwbvUkJ_NoB-9" target="jLqvvXUT3RwbvUkJ_NoB-0" edge="1">
          <mxGeometry relative="1" as="geometry" />
        </mxCell>
        <mxCell id="jLqvvXUT3RwbvUkJ_NoB-9" value="gender" style="ellipse;whiteSpace=wrap;html=1;" parent="WIyWlLk6GJQsqaUBKTNV-1" vertex="1">
          <mxGeometry x="500" y="180" width="70" height="40" as="geometry" />
        </mxCell>
        <mxCell id="jLqvvXUT3RwbvUkJ_NoB-10" style="rounded=0;orthogonalLoop=1;jettySize=auto;html=1;exitX=0;exitY=1;exitDx=0;exitDy=0;entryX=0.92;entryY=0.04;entryDx=0;entryDy=0;entryPerimeter=0;endArrow=none;endFill=0;" parent="WIyWlLk6GJQsqaUBKTNV-1" source="jLqvvXUT3RwbvUkJ_NoB-7" target="jLqvvXUT3RwbvUkJ_NoB-0" edge="1">
          <mxGeometry relative="1" as="geometry" />
        </mxCell>
        <mxCell id="jLqvvXUT3RwbvUkJ_NoB-18" style="edgeStyle=orthogonalEdgeStyle;rounded=0;orthogonalLoop=1;jettySize=auto;html=1;exitX=0.5;exitY=0;exitDx=0;exitDy=0;endArrow=none;endFill=0;" parent="WIyWlLk6GJQsqaUBKTNV-1" source="jLqvvXUT3RwbvUkJ_NoB-13" target="jLqvvXUT3RwbvUkJ_NoB-16" edge="1">
          <mxGeometry relative="1" as="geometry" />
        </mxCell>
        <mxCell id="H3Cdm3-sJ10uSfkxJZ9I-17" style="edgeStyle=orthogonalEdgeStyle;rounded=0;orthogonalLoop=1;jettySize=auto;html=1;exitX=1;exitY=1;exitDx=0;exitDy=0;entryX=0;entryY=0.5;entryDx=0;entryDy=0;endArrow=none;endFill=0;" parent="WIyWlLk6GJQsqaUBKTNV-1" source="jLqvvXUT3RwbvUkJ_NoB-13" target="H3Cdm3-sJ10uSfkxJZ9I-18" edge="1">
          <mxGeometry relative="1" as="geometry">
            <mxPoint x="470" y="510" as="targetPoint" />
          </mxGeometry>
        </mxCell>
        <mxCell id="jLqvvXUT3RwbvUkJ_NoB-13" value="travel list" style="rounded=0;whiteSpace=wrap;html=1;" parent="WIyWlLk6GJQsqaUBKTNV-1" vertex="1">
          <mxGeometry x="270" y="400" width="120" height="60" as="geometry" />
        </mxCell>
        <mxCell id="jLqvvXUT3RwbvUkJ_NoB-16" value="creates" style="rhombus;whiteSpace=wrap;html=1;" parent="WIyWlLk6GJQsqaUBKTNV-1" vertex="1">
          <mxGeometry x="310" y="291" width="50" height="50" as="geometry" />
        </mxCell>
        <mxCell id="jLqvvXUT3RwbvUkJ_NoB-21" value="1" style="text;html=1;align=center;verticalAlign=middle;resizable=0;points=[];autosize=1;strokeColor=none;fillColor=none;" parent="WIyWlLk6GJQsqaUBKTNV-1" vertex="1">
          <mxGeometry x="300" y="250" width="30" height="30" as="geometry" />
        </mxCell>
        <mxCell id="jLqvvXUT3RwbvUkJ_NoB-22" value="N" style="text;html=1;align=center;verticalAlign=middle;resizable=0;points=[];autosize=1;strokeColor=none;fillColor=none;" parent="WIyWlLk6GJQsqaUBKTNV-1" vertex="1">
          <mxGeometry x="300" y="370" width="30" height="30" as="geometry" />
        </mxCell>
        <mxCell id="jLqvvXUT3RwbvUkJ_NoB-28" style="edgeStyle=orthogonalEdgeStyle;rounded=0;orthogonalLoop=1;jettySize=auto;html=1;exitX=1;exitY=0;exitDx=0;exitDy=0;endArrow=none;endFill=0;entryX=0;entryY=0.5;entryDx=0;entryDy=0;" parent="WIyWlLk6GJQsqaUBKTNV-1" source="jLqvvXUT3RwbvUkJ_NoB-25" target="jLqvvXUT3RwbvUkJ_NoB-29" edge="1">
          <mxGeometry relative="1" as="geometry">
            <mxPoint x="500" y="260" as="targetPoint" />
          </mxGeometry>
        </mxCell>
        <mxCell id="W27LJ35027B_uGd5LRGq-33" style="edgeStyle=orthogonalEdgeStyle;rounded=0;orthogonalLoop=1;jettySize=auto;html=1;exitX=1;exitY=1;exitDx=0;exitDy=0;endArrow=none;endFill=0;" parent="WIyWlLk6GJQsqaUBKTNV-1" source="jLqvvXUT3RwbvUkJ_NoB-25" edge="1">
          <mxGeometry relative="1" as="geometry">
            <mxPoint x="430" y="360" as="targetPoint" />
            <Array as="points">
              <mxPoint x="430" y="310" />
            </Array>
          </mxGeometry>
        </mxCell>
        <mxCell id="H3Cdm3-sJ10uSfkxJZ9I-7" style="edgeStyle=orthogonalEdgeStyle;rounded=0;orthogonalLoop=1;jettySize=auto;html=1;exitX=0.5;exitY=1;exitDx=0;exitDy=0;entryX=1;entryY=0;entryDx=0;entryDy=0;endArrow=none;endFill=0;" parent="WIyWlLk6GJQsqaUBKTNV-1" source="jLqvvXUT3RwbvUkJ_NoB-25" target="jLqvvXUT3RwbvUkJ_NoB-13" edge="1">
          <mxGeometry relative="1" as="geometry" />
        </mxCell>
        <mxCell id="jLqvvXUT3RwbvUkJ_NoB-25" value="share list" style="rhombus;whiteSpace=wrap;html=1;" parent="WIyWlLk6GJQsqaUBKTNV-1" vertex="1">
          <mxGeometry x="375" y="280" width="50" height="40" as="geometry" />
        </mxCell>
        <mxCell id="jLqvvXUT3RwbvUkJ_NoB-29" value="date of sharing" style="ellipse;whiteSpace=wrap;html=1;" parent="WIyWlLk6GJQsqaUBKTNV-1" vertex="1">
          <mxGeometry x="440" y="280" width="60" height="40" as="geometry" />
        </mxCell>
        <mxCell id="jLqvvXUT3RwbvUkJ_NoB-93" style="edgeStyle=orthogonalEdgeStyle;rounded=0;orthogonalLoop=1;jettySize=auto;html=1;exitX=1;exitY=0.25;exitDx=0;exitDy=0;entryX=0;entryY=0.5;entryDx=0;entryDy=0;endArrow=none;endFill=0;" parent="WIyWlLk6GJQsqaUBKTNV-1" source="jLqvvXUT3RwbvUkJ_NoB-30" target="jLqvvXUT3RwbvUkJ_NoB-88" edge="1">
          <mxGeometry relative="1" as="geometry" />
        </mxCell>
        <mxCell id="jLqvvXUT3RwbvUkJ_NoB-30" value="Place" style="rounded=0;whiteSpace=wrap;html=1;" parent="WIyWlLk6GJQsqaUBKTNV-1" vertex="1">
          <mxGeometry x="470" y="890" width="120" height="60" as="geometry" />
        </mxCell>
        <mxCell id="jLqvvXUT3RwbvUkJ_NoB-53" style="edgeStyle=orthogonalEdgeStyle;rounded=0;orthogonalLoop=1;jettySize=auto;html=1;exitX=1;exitY=0.5;exitDx=0;exitDy=0;entryX=0;entryY=0.5;entryDx=0;entryDy=0;endArrow=none;endFill=0;" parent="WIyWlLk6GJQsqaUBKTNV-1" source="jLqvvXUT3RwbvUkJ_NoB-31" target="jLqvvXUT3RwbvUkJ_NoB-52" edge="1">
          <mxGeometry relative="1" as="geometry" />
        </mxCell>
        <mxCell id="jLqvvXUT3RwbvUkJ_NoB-102" style="edgeStyle=orthogonalEdgeStyle;rounded=0;orthogonalLoop=1;jettySize=auto;html=1;exitX=0.5;exitY=1;exitDx=0;exitDy=0;entryX=0.5;entryY=0;entryDx=0;entryDy=0;endArrow=none;endFill=0;" parent="WIyWlLk6GJQsqaUBKTNV-1" source="jLqvvXUT3RwbvUkJ_NoB-31" target="jLqvvXUT3RwbvUkJ_NoB-101" edge="1">
          <mxGeometry relative="1" as="geometry" />
        </mxCell>
        <mxCell id="3NceoRWMFwt2miOS7xl8-28" style="edgeStyle=orthogonalEdgeStyle;rounded=0;orthogonalLoop=1;jettySize=auto;html=1;exitX=0.75;exitY=1;exitDx=0;exitDy=0;" edge="1" parent="WIyWlLk6GJQsqaUBKTNV-1" source="jLqvvXUT3RwbvUkJ_NoB-31">
          <mxGeometry relative="1" as="geometry">
            <mxPoint x="920" y="1100" as="targetPoint" />
            <Array as="points">
              <mxPoint x="220" y="1100" />
            </Array>
          </mxGeometry>
        </mxCell>
        <mxCell id="jLqvvXUT3RwbvUkJ_NoB-31" value="City" style="rounded=0;whiteSpace=wrap;html=1;" parent="WIyWlLk6GJQsqaUBKTNV-1" vertex="1">
          <mxGeometry x="130" y="880" width="120" height="60" as="geometry" />
        </mxCell>
        <mxCell id="jLqvvXUT3RwbvUkJ_NoB-76" style="edgeStyle=orthogonalEdgeStyle;rounded=0;orthogonalLoop=1;jettySize=auto;html=1;exitX=0.5;exitY=0;exitDx=0;exitDy=0;entryX=0.5;entryY=1;entryDx=0;entryDy=0;endArrow=none;endFill=0;" parent="WIyWlLk6GJQsqaUBKTNV-1" source="jLqvvXUT3RwbvUkJ_NoB-32" target="jLqvvXUT3RwbvUkJ_NoB-70" edge="1">
          <mxGeometry relative="1" as="geometry" />
        </mxCell>
        <mxCell id="3NceoRWMFwt2miOS7xl8-17" style="edgeStyle=orthogonalEdgeStyle;rounded=0;orthogonalLoop=1;jettySize=auto;html=1;exitX=1;exitY=0.25;exitDx=0;exitDy=0;entryX=0;entryY=0.5;entryDx=0;entryDy=0;endArrow=none;endFill=0;shape=link;" edge="1" parent="WIyWlLk6GJQsqaUBKTNV-1" source="jLqvvXUT3RwbvUkJ_NoB-32" target="3NceoRWMFwt2miOS7xl8-19">
          <mxGeometry relative="1" as="geometry">
            <mxPoint x="610" y="705" as="targetPoint" />
          </mxGeometry>
        </mxCell>
        <mxCell id="3NceoRWMFwt2miOS7xl8-47" style="edgeStyle=orthogonalEdgeStyle;rounded=0;orthogonalLoop=1;jettySize=auto;html=1;exitX=0.25;exitY=1;exitDx=0;exitDy=0;entryX=0;entryY=0.5;entryDx=0;entryDy=0;endArrow=none;endFill=0;" edge="1" parent="WIyWlLk6GJQsqaUBKTNV-1" source="jLqvvXUT3RwbvUkJ_NoB-32" target="jLqvvXUT3RwbvUkJ_NoB-31">
          <mxGeometry relative="1" as="geometry" />
        </mxCell>
        <mxCell id="jLqvvXUT3RwbvUkJ_NoB-32" value="Agency" style="rounded=0;whiteSpace=wrap;html=1;" parent="WIyWlLk6GJQsqaUBKTNV-1" vertex="1">
          <mxGeometry y="690" width="120" height="60" as="geometry" />
        </mxCell>
        <mxCell id="W27LJ35027B_uGd5LRGq-9" style="rounded=0;orthogonalLoop=1;jettySize=auto;html=1;exitX=1;exitY=0.5;exitDx=0;exitDy=0;entryX=0.5;entryY=0;entryDx=0;entryDy=0;endArrow=none;endFill=0;" parent="WIyWlLk6GJQsqaUBKTNV-1" source="jLqvvXUT3RwbvUkJ_NoB-33" target="W27LJ35027B_uGd5LRGq-7" edge="1">
          <mxGeometry relative="1" as="geometry" />
        </mxCell>
        <mxCell id="H3Cdm3-sJ10uSfkxJZ9I-26" style="edgeStyle=orthogonalEdgeStyle;rounded=0;orthogonalLoop=1;jettySize=auto;html=1;exitX=0;exitY=1;exitDx=0;exitDy=0;entryX=1;entryY=0.5;entryDx=0;entryDy=0;endArrow=none;endFill=0;" parent="WIyWlLk6GJQsqaUBKTNV-1" source="jLqvvXUT3RwbvUkJ_NoB-33" target="H3Cdm3-sJ10uSfkxJZ9I-27" edge="1">
          <mxGeometry relative="1" as="geometry">
            <mxPoint x="-10" y="630" as="targetPoint" />
          </mxGeometry>
        </mxCell>
        <mxCell id="jLqvvXUT3RwbvUkJ_NoB-33" value="Trip" style="rounded=0;whiteSpace=wrap;html=1;" parent="WIyWlLk6GJQsqaUBKTNV-1" vertex="1">
          <mxGeometry x="10" y="540" width="120" height="60" as="geometry" />
        </mxCell>
        <mxCell id="jLqvvXUT3RwbvUkJ_NoB-47" style="rounded=0;orthogonalLoop=1;jettySize=auto;html=1;exitX=0.5;exitY=0;exitDx=0;exitDy=0;entryX=0.5;entryY=1;entryDx=0;entryDy=0;endArrow=none;endFill=0;" parent="WIyWlLk6GJQsqaUBKTNV-1" source="jLqvvXUT3RwbvUkJ_NoB-45" target="jLqvvXUT3RwbvUkJ_NoB-13" edge="1">
          <mxGeometry relative="1" as="geometry" />
        </mxCell>
        <mxCell id="jLqvvXUT3RwbvUkJ_NoB-45" value="includes" style="rhombus;whiteSpace=wrap;html=1;" parent="WIyWlLk6GJQsqaUBKTNV-1" vertex="1">
          <mxGeometry x="300" y="500" width="60" height="60" as="geometry" />
        </mxCell>
        <mxCell id="jLqvvXUT3RwbvUkJ_NoB-54" style="edgeStyle=orthogonalEdgeStyle;rounded=0;orthogonalLoop=1;jettySize=auto;html=1;exitX=1;exitY=0.5;exitDx=0;exitDy=0;entryX=0;entryY=0.5;entryDx=0;entryDy=0;endArrow=none;endFill=0;" parent="WIyWlLk6GJQsqaUBKTNV-1" source="jLqvvXUT3RwbvUkJ_NoB-52" target="jLqvvXUT3RwbvUkJ_NoB-30" edge="1">
          <mxGeometry relative="1" as="geometry" />
        </mxCell>
        <mxCell id="jLqvvXUT3RwbvUkJ_NoB-52" value="belongs" style="rhombus;whiteSpace=wrap;html=1;" parent="WIyWlLk6GJQsqaUBKTNV-1" vertex="1">
          <mxGeometry x="335" y="895" width="50" height="50" as="geometry" />
        </mxCell>
        <mxCell id="jLqvvXUT3RwbvUkJ_NoB-55" value="M" style="text;html=1;align=center;verticalAlign=middle;resizable=0;points=[];autosize=1;strokeColor=none;fillColor=none;" parent="WIyWlLk6GJQsqaUBKTNV-1" vertex="1">
          <mxGeometry x="305" y="458" width="30" height="30" as="geometry" />
        </mxCell>
        <mxCell id="jLqvvXUT3RwbvUkJ_NoB-56" value="N" style="text;html=1;align=center;verticalAlign=middle;resizable=0;points=[];autosize=1;strokeColor=none;fillColor=none;" parent="WIyWlLk6GJQsqaUBKTNV-1" vertex="1">
          <mxGeometry x="130.5" y="850" width="30" height="30" as="geometry" />
        </mxCell>
        <mxCell id="jLqvvXUT3RwbvUkJ_NoB-57" value="N" style="text;html=1;align=center;verticalAlign=middle;resizable=0;points=[];autosize=1;strokeColor=none;fillColor=none;" parent="WIyWlLk6GJQsqaUBKTNV-1" vertex="1">
          <mxGeometry x="325" y="558" width="30" height="30" as="geometry" />
        </mxCell>
        <mxCell id="jLqvvXUT3RwbvUkJ_NoB-58" value="1" style="text;html=1;align=center;verticalAlign=middle;resizable=0;points=[];autosize=1;strokeColor=none;fillColor=none;" parent="WIyWlLk6GJQsqaUBKTNV-1" vertex="1">
          <mxGeometry x="250" y="880" width="30" height="30" as="geometry" />
        </mxCell>
        <mxCell id="jLqvvXUT3RwbvUkJ_NoB-61" value="N" style="text;html=1;align=center;verticalAlign=middle;resizable=0;points=[];autosize=1;strokeColor=none;fillColor=none;" parent="WIyWlLk6GJQsqaUBKTNV-1" vertex="1">
          <mxGeometry x="335" y="248" width="30" height="30" as="geometry" />
        </mxCell>
        <mxCell id="jLqvvXUT3RwbvUkJ_NoB-63" value="is neighbor" style="rhombus;whiteSpace=wrap;html=1;" parent="WIyWlLk6GJQsqaUBKTNV-1" vertex="1">
          <mxGeometry x="160.5" y="790" width="59" height="60" as="geometry" />
        </mxCell>
        <mxCell id="jLqvvXUT3RwbvUkJ_NoB-68" value="M" style="text;html=1;align=center;verticalAlign=middle;resizable=0;points=[];autosize=1;strokeColor=none;fillColor=none;" parent="WIyWlLk6GJQsqaUBKTNV-1" vertex="1">
          <mxGeometry x="440" y="887.5" width="30" height="30" as="geometry" />
        </mxCell>
        <mxCell id="jLqvvXUT3RwbvUkJ_NoB-69" value="N" style="text;html=1;align=center;verticalAlign=middle;resizable=0;points=[];autosize=1;strokeColor=none;fillColor=none;" parent="WIyWlLk6GJQsqaUBKTNV-1" vertex="1">
          <mxGeometry x="220" y="850" width="30" height="30" as="geometry" />
        </mxCell>
        <mxCell id="jLqvvXUT3RwbvUkJ_NoB-70" value="organize" style="rhombus;whiteSpace=wrap;html=1;" parent="WIyWlLk6GJQsqaUBKTNV-1" vertex="1">
          <mxGeometry x="35" y="620" width="50" height="50" as="geometry" />
        </mxCell>
        <mxCell id="jLqvvXUT3RwbvUkJ_NoB-73" value="M" style="text;html=1;align=center;verticalAlign=middle;resizable=0;points=[];autosize=1;strokeColor=none;fillColor=none;" parent="WIyWlLk6GJQsqaUBKTNV-1" vertex="1">
          <mxGeometry x="55" y="600" width="30" height="30" as="geometry" />
        </mxCell>
        <mxCell id="jLqvvXUT3RwbvUkJ_NoB-74" value="1" style="text;html=1;align=center;verticalAlign=middle;resizable=0;points=[];autosize=1;strokeColor=none;fillColor=none;" parent="WIyWlLk6GJQsqaUBKTNV-1" vertex="1">
          <mxGeometry x="55" y="660" width="30" height="30" as="geometry" />
        </mxCell>
        <mxCell id="jLqvvXUT3RwbvUkJ_NoB-75" style="edgeStyle=orthogonalEdgeStyle;rounded=0;orthogonalLoop=1;jettySize=auto;html=1;exitX=0.5;exitY=0;exitDx=0;exitDy=0;entryX=0.427;entryY=1.02;entryDx=0;entryDy=0;entryPerimeter=0;endArrow=none;endFill=0;" parent="WIyWlLk6GJQsqaUBKTNV-1" source="jLqvvXUT3RwbvUkJ_NoB-70" target="jLqvvXUT3RwbvUkJ_NoB-33" edge="1">
          <mxGeometry relative="1" as="geometry" />
        </mxCell>
        <mxCell id="jLqvvXUT3RwbvUkJ_NoB-78" value="attends" style="rhombus;whiteSpace=wrap;html=1;" parent="WIyWlLk6GJQsqaUBKTNV-1" vertex="1">
          <mxGeometry x="130" y="348" width="80" height="80" as="geometry" />
        </mxCell>
        <mxCell id="jLqvvXUT3RwbvUkJ_NoB-80" value="M" style="text;html=1;align=center;verticalAlign=middle;resizable=0;points=[];autosize=1;strokeColor=none;fillColor=none;" parent="WIyWlLk6GJQsqaUBKTNV-1" vertex="1">
          <mxGeometry x="235" y="228" width="30" height="30" as="geometry" />
        </mxCell>
        <mxCell id="jLqvvXUT3RwbvUkJ_NoB-81" value="1" style="text;html=1;align=center;verticalAlign=middle;resizable=0;points=[];autosize=1;strokeColor=none;fillColor=none;" parent="WIyWlLk6GJQsqaUBKTNV-1" vertex="1">
          <mxGeometry x="75" y="510" width="30" height="30" as="geometry" />
        </mxCell>
        <mxCell id="jLqvvXUT3RwbvUkJ_NoB-84" style="edgeStyle=orthogonalEdgeStyle;rounded=0;orthogonalLoop=1;jettySize=auto;html=1;exitX=0;exitY=0.5;exitDx=0;exitDy=0;endArrow=none;endFill=0;" parent="WIyWlLk6GJQsqaUBKTNV-1" source="jLqvvXUT3RwbvUkJ_NoB-82" target="jLqvvXUT3RwbvUkJ_NoB-13" edge="1">
          <mxGeometry relative="1" as="geometry" />
        </mxCell>
        <mxCell id="jLqvvXUT3RwbvUkJ_NoB-82" value="name" style="ellipse;whiteSpace=wrap;html=1;" parent="WIyWlLk6GJQsqaUBKTNV-1" vertex="1">
          <mxGeometry x="443" y="386" width="70" height="42" as="geometry" />
        </mxCell>
        <mxCell id="jLqvvXUT3RwbvUkJ_NoB-83" value="date" style="ellipse;whiteSpace=wrap;html=1;" parent="WIyWlLk6GJQsqaUBKTNV-1" vertex="1">
          <mxGeometry x="480" y="428" width="80" height="45" as="geometry" />
        </mxCell>
        <mxCell id="jLqvvXUT3RwbvUkJ_NoB-85" style="edgeStyle=orthogonalEdgeStyle;rounded=0;orthogonalLoop=1;jettySize=auto;html=1;exitX=0;exitY=0.5;exitDx=0;exitDy=0;entryX=1;entryY=0.75;entryDx=0;entryDy=0;endArrow=none;endFill=0;" parent="WIyWlLk6GJQsqaUBKTNV-1" source="jLqvvXUT3RwbvUkJ_NoB-83" target="jLqvvXUT3RwbvUkJ_NoB-13" edge="1">
          <mxGeometry relative="1" as="geometry" />
        </mxCell>
        <mxCell id="jLqvvXUT3RwbvUkJ_NoB-86" value="name" style="ellipse;whiteSpace=wrap;html=1;" parent="WIyWlLk6GJQsqaUBKTNV-1" vertex="1">
          <mxGeometry x="476" y="810" width="70" height="40" as="geometry" />
        </mxCell>
        <mxCell id="jLqvvXUT3RwbvUkJ_NoB-87" value="&lt;u&gt;address&lt;/u&gt;" style="ellipse;whiteSpace=wrap;html=1;" parent="WIyWlLk6GJQsqaUBKTNV-1" vertex="1">
          <mxGeometry x="570" y="810" width="70" height="40" as="geometry" />
        </mxCell>
        <mxCell id="jLqvvXUT3RwbvUkJ_NoB-88" value="location" style="ellipse;whiteSpace=wrap;html=1;" parent="WIyWlLk6GJQsqaUBKTNV-1" vertex="1">
          <mxGeometry x="640" y="872.5" width="70" height="45" as="geometry" />
        </mxCell>
        <mxCell id="jLqvvXUT3RwbvUkJ_NoB-89" value="latitude" style="ellipse;whiteSpace=wrap;html=1;" parent="WIyWlLk6GJQsqaUBKTNV-1" vertex="1">
          <mxGeometry x="690" y="790" width="60" height="40" as="geometry" />
        </mxCell>
        <mxCell id="jLqvvXUT3RwbvUkJ_NoB-95" style="rounded=0;orthogonalLoop=1;jettySize=auto;html=1;exitX=0;exitY=0.5;exitDx=0;exitDy=0;entryX=1;entryY=0;entryDx=0;entryDy=0;endArrow=none;endFill=0;" parent="WIyWlLk6GJQsqaUBKTNV-1" source="jLqvvXUT3RwbvUkJ_NoB-90" target="jLqvvXUT3RwbvUkJ_NoB-88" edge="1">
          <mxGeometry relative="1" as="geometry" />
        </mxCell>
        <mxCell id="jLqvvXUT3RwbvUkJ_NoB-90" value="longitude" style="ellipse;whiteSpace=wrap;html=1;" parent="WIyWlLk6GJQsqaUBKTNV-1" vertex="1">
          <mxGeometry x="757" y="830" width="70" height="50" as="geometry" />
        </mxCell>
        <mxCell id="jLqvvXUT3RwbvUkJ_NoB-91" style="edgeStyle=orthogonalEdgeStyle;rounded=0;orthogonalLoop=1;jettySize=auto;html=1;exitX=1;exitY=1;exitDx=0;exitDy=0;entryX=0.178;entryY=0.007;entryDx=0;entryDy=0;entryPerimeter=0;endArrow=none;endFill=0;" parent="WIyWlLk6GJQsqaUBKTNV-1" source="jLqvvXUT3RwbvUkJ_NoB-86" target="jLqvvXUT3RwbvUkJ_NoB-30" edge="1">
          <mxGeometry relative="1" as="geometry" />
        </mxCell>
        <mxCell id="jLqvvXUT3RwbvUkJ_NoB-92" style="edgeStyle=orthogonalEdgeStyle;rounded=0;orthogonalLoop=1;jettySize=auto;html=1;exitX=0.5;exitY=1;exitDx=0;exitDy=0;entryX=0.685;entryY=-0.007;entryDx=0;entryDy=0;entryPerimeter=0;endArrow=none;endFill=0;" parent="WIyWlLk6GJQsqaUBKTNV-1" source="jLqvvXUT3RwbvUkJ_NoB-87" target="jLqvvXUT3RwbvUkJ_NoB-30" edge="1">
          <mxGeometry relative="1" as="geometry" />
        </mxCell>
        <mxCell id="jLqvvXUT3RwbvUkJ_NoB-94" style="edgeStyle=orthogonalEdgeStyle;rounded=0;orthogonalLoop=1;jettySize=auto;html=1;exitX=0.5;exitY=1;exitDx=0;exitDy=0;entryX=0.714;entryY=-0.011;entryDx=0;entryDy=0;entryPerimeter=0;endArrow=none;endFill=0;" parent="WIyWlLk6GJQsqaUBKTNV-1" source="jLqvvXUT3RwbvUkJ_NoB-89" target="jLqvvXUT3RwbvUkJ_NoB-88" edge="1">
          <mxGeometry relative="1" as="geometry" />
        </mxCell>
        <mxCell id="jLqvvXUT3RwbvUkJ_NoB-97" style="rounded=0;orthogonalLoop=1;jettySize=auto;html=1;exitX=0;exitY=0.5;exitDx=0;exitDy=0;entryX=0.25;entryY=0;entryDx=0;entryDy=0;endArrow=none;endFill=0;" parent="WIyWlLk6GJQsqaUBKTNV-1" source="jLqvvXUT3RwbvUkJ_NoB-63" target="jLqvvXUT3RwbvUkJ_NoB-31" edge="1">
          <mxGeometry relative="1" as="geometry" />
        </mxCell>
        <mxCell id="jLqvvXUT3RwbvUkJ_NoB-98" style="rounded=0;orthogonalLoop=1;jettySize=auto;html=1;exitX=1;exitY=0.5;exitDx=0;exitDy=0;endArrow=none;endFill=0;entryX=0.75;entryY=0;entryDx=0;entryDy=0;" parent="WIyWlLk6GJQsqaUBKTNV-1" source="jLqvvXUT3RwbvUkJ_NoB-63" target="jLqvvXUT3RwbvUkJ_NoB-31" edge="1">
          <mxGeometry relative="1" as="geometry">
            <mxPoint x="240" y="870" as="targetPoint" />
          </mxGeometry>
        </mxCell>
        <mxCell id="jLqvvXUT3RwbvUkJ_NoB-99" value="Country" style="ellipse;whiteSpace=wrap;html=1;" parent="WIyWlLk6GJQsqaUBKTNV-1" vertex="1">
          <mxGeometry x="45" y="960" width="80" height="40" as="geometry" />
        </mxCell>
        <mxCell id="jLqvvXUT3RwbvUkJ_NoB-100" style="rounded=0;orthogonalLoop=1;jettySize=auto;html=1;exitX=0;exitY=1;exitDx=0;exitDy=0;entryX=0.75;entryY=0.25;entryDx=0;entryDy=0;entryPerimeter=0;endArrow=none;endFill=0;" parent="WIyWlLk6GJQsqaUBKTNV-1" source="jLqvvXUT3RwbvUkJ_NoB-31" target="jLqvvXUT3RwbvUkJ_NoB-99" edge="1">
          <mxGeometry relative="1" as="geometry" />
        </mxCell>
        <mxCell id="jLqvvXUT3RwbvUkJ_NoB-101" value="&lt;u&gt;name&lt;/u&gt;" style="ellipse;whiteSpace=wrap;html=1;" parent="WIyWlLk6GJQsqaUBKTNV-1" vertex="1">
          <mxGeometry x="129.75" y="990" width="75" height="40" as="geometry" />
        </mxCell>
        <mxCell id="jLqvvXUT3RwbvUkJ_NoB-104" style="edgeStyle=orthogonalEdgeStyle;rounded=0;orthogonalLoop=1;jettySize=auto;html=1;exitX=1;exitY=1;exitDx=0;exitDy=0;entryX=0;entryY=0;entryDx=0;entryDy=0;endArrow=none;endFill=0;" parent="WIyWlLk6GJQsqaUBKTNV-1" source="jLqvvXUT3RwbvUkJ_NoB-103" target="jLqvvXUT3RwbvUkJ_NoB-63" edge="1">
          <mxGeometry relative="1" as="geometry" />
        </mxCell>
        <mxCell id="jLqvvXUT3RwbvUkJ_NoB-103" value="distance" style="ellipse;whiteSpace=wrap;html=1;" parent="WIyWlLk6GJQsqaUBKTNV-1" vertex="1">
          <mxGeometry x="75" y="773" width="65" height="37" as="geometry" />
        </mxCell>
        <mxCell id="W27LJ35027B_uGd5LRGq-2" style="edgeStyle=orthogonalEdgeStyle;rounded=0;orthogonalLoop=1;jettySize=auto;html=1;exitX=0.5;exitY=1;exitDx=0;exitDy=0;endArrow=none;endFill=0;shape=link;" parent="WIyWlLk6GJQsqaUBKTNV-1" source="W27LJ35027B_uGd5LRGq-0" edge="1">
          <mxGeometry relative="1" as="geometry">
            <mxPoint x="320.0000000000002" y="730" as="targetPoint" />
          </mxGeometry>
        </mxCell>
        <mxCell id="W27LJ35027B_uGd5LRGq-8" style="rounded=0;orthogonalLoop=1;jettySize=auto;html=1;exitX=0;exitY=0.5;exitDx=0;exitDy=0;entryX=1;entryY=0.5;entryDx=0;entryDy=0;endArrow=none;endFill=0;shape=link;" parent="WIyWlLk6GJQsqaUBKTNV-1" source="W27LJ35027B_uGd5LRGq-0" target="W27LJ35027B_uGd5LRGq-7" edge="1">
          <mxGeometry relative="1" as="geometry" />
        </mxCell>
        <mxCell id="W27LJ35027B_uGd5LRGq-0" value="travel spot" style="rounded=0;whiteSpace=wrap;html=1;" parent="WIyWlLk6GJQsqaUBKTNV-1" vertex="1">
          <mxGeometry x="260" y="588" width="120" height="60" as="geometry" />
        </mxCell>
        <mxCell id="W27LJ35027B_uGd5LRGq-1" style="edgeStyle=orthogonalEdgeStyle;rounded=0;orthogonalLoop=1;jettySize=auto;html=1;exitX=0.5;exitY=1;exitDx=0;exitDy=0;entryX=0.583;entryY=0.033;entryDx=0;entryDy=0;entryPerimeter=0;endArrow=none;endFill=0;" parent="WIyWlLk6GJQsqaUBKTNV-1" source="jLqvvXUT3RwbvUkJ_NoB-45" target="W27LJ35027B_uGd5LRGq-0" edge="1">
          <mxGeometry relative="1" as="geometry" />
        </mxCell>
        <mxCell id="W27LJ35027B_uGd5LRGq-5" style="edgeStyle=orthogonalEdgeStyle;rounded=0;orthogonalLoop=1;jettySize=auto;html=1;exitX=1;exitY=1;exitDx=0;exitDy=0;entryX=0;entryY=0;entryDx=0;entryDy=0;endArrow=none;endFill=0;" parent="WIyWlLk6GJQsqaUBKTNV-1" source="W27LJ35027B_uGd5LRGq-3" target="jLqvvXUT3RwbvUkJ_NoB-30" edge="1">
          <mxGeometry relative="1" as="geometry" />
        </mxCell>
        <mxCell id="W27LJ35027B_uGd5LRGq-13" value="U" style="edgeLabel;html=1;align=center;verticalAlign=middle;resizable=0;points=[];rotation=0;" parent="W27LJ35027B_uGd5LRGq-5" vertex="1" connectable="0">
          <mxGeometry x="0.2257" y="3" relative="1" as="geometry">
            <mxPoint x="-3" y="6" as="offset" />
          </mxGeometry>
        </mxCell>
        <mxCell id="W27LJ35027B_uGd5LRGq-3" value="d" style="ellipse;whiteSpace=wrap;html=1;aspect=fixed;" parent="WIyWlLk6GJQsqaUBKTNV-1" vertex="1">
          <mxGeometry x="305" y="730" width="30" height="30" as="geometry" />
        </mxCell>
        <mxCell id="W27LJ35027B_uGd5LRGq-4" style="edgeStyle=orthogonalEdgeStyle;rounded=0;orthogonalLoop=1;jettySize=auto;html=1;exitX=0;exitY=1;exitDx=0;exitDy=0;entryX=-0.057;entryY=0.212;entryDx=0;entryDy=0;entryPerimeter=0;endArrow=none;endFill=0;" parent="WIyWlLk6GJQsqaUBKTNV-1" source="W27LJ35027B_uGd5LRGq-3" target="jLqvvXUT3RwbvUkJ_NoB-58" edge="1">
          <mxGeometry relative="1" as="geometry" />
        </mxCell>
        <mxCell id="W27LJ35027B_uGd5LRGq-12" value="U" style="edgeLabel;html=1;align=center;verticalAlign=middle;resizable=0;points=[];rotation=1;" parent="W27LJ35027B_uGd5LRGq-4" vertex="1" connectable="0">
          <mxGeometry x="-0.0305" relative="1" as="geometry">
            <mxPoint as="offset" />
          </mxGeometry>
        </mxCell>
        <mxCell id="W27LJ35027B_uGd5LRGq-7" value="includes" style="rhombus;whiteSpace=wrap;html=1;" parent="WIyWlLk6GJQsqaUBKTNV-1" vertex="1">
          <mxGeometry x="149.5" y="588" width="70" height="62" as="geometry" />
        </mxCell>
        <mxCell id="W27LJ35027B_uGd5LRGq-10" value="M" style="text;html=1;align=center;verticalAlign=middle;resizable=0;points=[];autosize=1;strokeColor=none;fillColor=none;" parent="WIyWlLk6GJQsqaUBKTNV-1" vertex="1">
          <mxGeometry x="125" y="568" width="30" height="30" as="geometry" />
        </mxCell>
        <mxCell id="W27LJ35027B_uGd5LRGq-11" value="N" style="text;html=1;align=center;verticalAlign=middle;resizable=0;points=[];autosize=1;strokeColor=none;fillColor=none;" parent="WIyWlLk6GJQsqaUBKTNV-1" vertex="1">
          <mxGeometry x="235" y="618" width="30" height="30" as="geometry" />
        </mxCell>
        <mxCell id="W27LJ35027B_uGd5LRGq-18" style="edgeStyle=orthogonalEdgeStyle;rounded=0;orthogonalLoop=1;jettySize=auto;html=1;exitX=1;exitY=0.5;exitDx=0;exitDy=0;entryX=0;entryY=0.5;entryDx=0;entryDy=0;endArrow=none;endFill=0;" parent="WIyWlLk6GJQsqaUBKTNV-1" source="W27LJ35027B_uGd5LRGq-14" target="H3Cdm3-sJ10uSfkxJZ9I-29" edge="1">
          <mxGeometry relative="1" as="geometry" />
        </mxCell>
        <mxCell id="W27LJ35027B_uGd5LRGq-14" value="end date" style="ellipse;whiteSpace=wrap;html=1;" parent="WIyWlLk6GJQsqaUBKTNV-1" vertex="1">
          <mxGeometry x="-230" y="328" width="80" height="50" as="geometry" />
        </mxCell>
        <mxCell id="W27LJ35027B_uGd5LRGq-15" value="price" style="ellipse;whiteSpace=wrap;html=1;" parent="WIyWlLk6GJQsqaUBKTNV-1" vertex="1">
          <mxGeometry x="-210" y="258" width="80" height="40" as="geometry" />
        </mxCell>
        <mxCell id="W27LJ35027B_uGd5LRGq-17" style="edgeStyle=orthogonalEdgeStyle;rounded=0;orthogonalLoop=1;jettySize=auto;html=1;exitX=1;exitY=0.5;exitDx=0;exitDy=0;entryX=0;entryY=1;entryDx=0;entryDy=0;endArrow=none;endFill=0;" parent="WIyWlLk6GJQsqaUBKTNV-1" source="W27LJ35027B_uGd5LRGq-16" target="H3Cdm3-sJ10uSfkxJZ9I-29" edge="1">
          <mxGeometry relative="1" as="geometry" />
        </mxCell>
        <mxCell id="W27LJ35027B_uGd5LRGq-16" value="&amp;nbsp;start date" style="ellipse;whiteSpace=wrap;html=1;" parent="WIyWlLk6GJQsqaUBKTNV-1" vertex="1">
          <mxGeometry x="-235" y="398" width="90" height="40" as="geometry" />
        </mxCell>
        <mxCell id="W27LJ35027B_uGd5LRGq-19" style="edgeStyle=orthogonalEdgeStyle;rounded=0;orthogonalLoop=1;jettySize=auto;html=1;exitX=1;exitY=1;exitDx=0;exitDy=0;entryX=0;entryY=0;entryDx=0;entryDy=0;endArrow=none;endFill=0;" parent="WIyWlLk6GJQsqaUBKTNV-1" source="W27LJ35027B_uGd5LRGq-15" target="H3Cdm3-sJ10uSfkxJZ9I-29" edge="1">
          <mxGeometry relative="1" as="geometry" />
        </mxCell>
        <mxCell id="W27LJ35027B_uGd5LRGq-23" style="edgeStyle=orthogonalEdgeStyle;rounded=0;orthogonalLoop=1;jettySize=auto;html=1;exitX=1;exitY=0.5;exitDx=0;exitDy=0;entryX=0;entryY=0.25;entryDx=0;entryDy=0;endArrow=none;endFill=0;" parent="WIyWlLk6GJQsqaUBKTNV-1" source="W27LJ35027B_uGd5LRGq-20" target="jLqvvXUT3RwbvUkJ_NoB-32" edge="1">
          <mxGeometry relative="1" as="geometry" />
        </mxCell>
        <mxCell id="W27LJ35027B_uGd5LRGq-20" value="location" style="ellipse;whiteSpace=wrap;html=1;" parent="WIyWlLk6GJQsqaUBKTNV-1" vertex="1">
          <mxGeometry x="-120" y="660" width="70" height="50" as="geometry" />
        </mxCell>
        <mxCell id="W27LJ35027B_uGd5LRGq-22" style="edgeStyle=orthogonalEdgeStyle;rounded=0;orthogonalLoop=1;jettySize=auto;html=1;exitX=1;exitY=0.5;exitDx=0;exitDy=0;entryX=0;entryY=0.75;entryDx=0;entryDy=0;endArrow=none;endFill=0;" parent="WIyWlLk6GJQsqaUBKTNV-1" source="W27LJ35027B_uGd5LRGq-21" target="jLqvvXUT3RwbvUkJ_NoB-32" edge="1">
          <mxGeometry relative="1" as="geometry" />
        </mxCell>
        <mxCell id="W27LJ35027B_uGd5LRGq-21" value="&lt;u&gt;name&lt;/u&gt;" style="ellipse;whiteSpace=wrap;html=1;" parent="WIyWlLk6GJQsqaUBKTNV-1" vertex="1">
          <mxGeometry x="-130" y="725" width="70" height="40" as="geometry" />
        </mxCell>
        <mxCell id="W27LJ35027B_uGd5LRGq-26" value="M" style="text;html=1;align=center;verticalAlign=middle;resizable=0;points=[];autosize=1;strokeColor=none;fillColor=none;" parent="WIyWlLk6GJQsqaUBKTNV-1" vertex="1">
          <mxGeometry x="375" y="248" width="30" height="30" as="geometry" />
        </mxCell>
        <mxCell id="W27LJ35027B_uGd5LRGq-32" value="comment" style="ellipse;whiteSpace=wrap;html=1;align=center;dashed=1;" parent="WIyWlLk6GJQsqaUBKTNV-1" vertex="1">
          <mxGeometry x="433" y="340" width="67" height="30" as="geometry" />
        </mxCell>
        <mxCell id="H3Cdm3-sJ10uSfkxJZ9I-0" style="rounded=0;orthogonalLoop=1;jettySize=auto;html=1;exitX=0.5;exitY=0;exitDx=0;exitDy=0;entryX=0.142;entryY=1.067;entryDx=0;entryDy=0;entryPerimeter=0;endArrow=none;endFill=0;" parent="WIyWlLk6GJQsqaUBKTNV-1" source="H3Cdm3-sJ10uSfkxJZ9I-1" target="jLqvvXUT3RwbvUkJ_NoB-0" edge="1">
          <mxGeometry relative="1" as="geometry" />
        </mxCell>
        <mxCell id="H3Cdm3-sJ10uSfkxJZ9I-4" style="rounded=0;orthogonalLoop=1;jettySize=auto;html=1;exitX=0.5;exitY=1;exitDx=0;exitDy=0;entryX=0;entryY=0;entryDx=0;entryDy=0;endArrow=none;endFill=0;" parent="WIyWlLk6GJQsqaUBKTNV-1" source="H3Cdm3-sJ10uSfkxJZ9I-1" target="jLqvvXUT3RwbvUkJ_NoB-13" edge="1">
          <mxGeometry relative="1" as="geometry" />
        </mxCell>
        <mxCell id="H3Cdm3-sJ10uSfkxJZ9I-1" value="belongs" style="rhombus;whiteSpace=wrap;html=1;" parent="WIyWlLk6GJQsqaUBKTNV-1" vertex="1">
          <mxGeometry x="250" y="289" width="45" height="52" as="geometry" />
        </mxCell>
        <mxCell id="H3Cdm3-sJ10uSfkxJZ9I-5" value="M" style="text;html=1;align=center;verticalAlign=middle;resizable=0;points=[];autosize=1;strokeColor=none;fillColor=none;" parent="WIyWlLk6GJQsqaUBKTNV-1" vertex="1">
          <mxGeometry x="275" y="258" width="30" height="30" as="geometry" />
        </mxCell>
        <mxCell id="H3Cdm3-sJ10uSfkxJZ9I-6" value="N" style="text;html=1;align=center;verticalAlign=middle;resizable=0;points=[];autosize=1;strokeColor=none;fillColor=none;" parent="WIyWlLk6GJQsqaUBKTNV-1" vertex="1">
          <mxGeometry x="245" y="378" width="30" height="30" as="geometry" />
        </mxCell>
        <mxCell id="H3Cdm3-sJ10uSfkxJZ9I-8" value="P" style="text;html=1;align=center;verticalAlign=middle;resizable=0;points=[];autosize=1;strokeColor=none;fillColor=none;" parent="WIyWlLk6GJQsqaUBKTNV-1" vertex="1">
          <mxGeometry x="385" y="368" width="30" height="30" as="geometry" />
        </mxCell>
        <mxCell id="H3Cdm3-sJ10uSfkxJZ9I-16" style="rounded=0;orthogonalLoop=1;jettySize=auto;html=1;exitX=1;exitY=1;exitDx=0;exitDy=0;endArrow=none;endFill=0;entryX=0.25;entryY=0;entryDx=0;entryDy=0;" parent="WIyWlLk6GJQsqaUBKTNV-1" source="H3Cdm3-sJ10uSfkxJZ9I-21" target="W27LJ35027B_uGd5LRGq-0" edge="1">
          <mxGeometry relative="1" as="geometry">
            <mxPoint x="270" y="518" as="sourcePoint" />
            <mxPoint x="280" y="580" as="targetPoint" />
          </mxGeometry>
        </mxCell>
        <mxCell id="H3Cdm3-sJ10uSfkxJZ9I-19" style="edgeStyle=orthogonalEdgeStyle;rounded=0;orthogonalLoop=1;jettySize=auto;html=1;exitX=0;exitY=0;exitDx=0;exitDy=0;endArrow=none;endFill=0;" parent="WIyWlLk6GJQsqaUBKTNV-1" source="H3Cdm3-sJ10uSfkxJZ9I-21" edge="1">
          <mxGeometry relative="1" as="geometry">
            <mxPoint x="170" y="430" as="targetPoint" />
            <mxPoint x="170" y="480" as="sourcePoint" />
          </mxGeometry>
        </mxCell>
        <mxCell id="H3Cdm3-sJ10uSfkxJZ9I-11" value="P" style="text;html=1;align=center;verticalAlign=middle;resizable=0;points=[];autosize=1;strokeColor=none;fillColor=none;" parent="WIyWlLk6GJQsqaUBKTNV-1" vertex="1">
          <mxGeometry x="165" y="438" width="30" height="30" as="geometry" />
        </mxCell>
        <mxCell id="H3Cdm3-sJ10uSfkxJZ9I-13" style="edgeStyle=orthogonalEdgeStyle;rounded=0;orthogonalLoop=1;jettySize=auto;html=1;exitX=1;exitY=1;exitDx=0;exitDy=0;entryX=0.25;entryY=1;entryDx=0;entryDy=0;endArrow=none;endFill=0;" parent="WIyWlLk6GJQsqaUBKTNV-1" source="H3Cdm3-sJ10uSfkxJZ9I-12" target="H3Cdm3-sJ10uSfkxJZ9I-21" edge="1">
          <mxGeometry relative="1" as="geometry">
            <mxPoint x="170" y="499" as="targetPoint" />
          </mxGeometry>
        </mxCell>
        <mxCell id="H3Cdm3-sJ10uSfkxJZ9I-12" value="date" style="ellipse;whiteSpace=wrap;html=1;" parent="WIyWlLk6GJQsqaUBKTNV-1" vertex="1">
          <mxGeometry x="140" y="521" width="54.5" height="37" as="geometry" />
        </mxCell>
        <mxCell id="H3Cdm3-sJ10uSfkxJZ9I-15" style="edgeStyle=orthogonalEdgeStyle;rounded=0;orthogonalLoop=1;jettySize=auto;html=1;exitX=0.5;exitY=0;exitDx=0;exitDy=0;endArrow=none;endFill=0;entryX=0.5;entryY=1;entryDx=0;entryDy=0;" parent="WIyWlLk6GJQsqaUBKTNV-1" source="H3Cdm3-sJ10uSfkxJZ9I-14" target="H3Cdm3-sJ10uSfkxJZ9I-21" edge="1">
          <mxGeometry relative="1" as="geometry">
            <mxPoint x="220" y="518" as="targetPoint" />
          </mxGeometry>
        </mxCell>
        <mxCell id="H3Cdm3-sJ10uSfkxJZ9I-14" value="price" style="ellipse;whiteSpace=wrap;html=1;" parent="WIyWlLk6GJQsqaUBKTNV-1" vertex="1">
          <mxGeometry x="200" y="542.5" width="60" height="42" as="geometry" />
        </mxCell>
        <mxCell id="H3Cdm3-sJ10uSfkxJZ9I-18" value="&lt;u&gt;id&lt;/u&gt;" style="ellipse;whiteSpace=wrap;html=1;" parent="WIyWlLk6GJQsqaUBKTNV-1" vertex="1">
          <mxGeometry x="466" y="490" width="70" height="50" as="geometry" />
        </mxCell>
        <mxCell id="H3Cdm3-sJ10uSfkxJZ9I-21" value="faculty visit" style="shape=ext;margin=3;double=1;whiteSpace=wrap;html=1;align=center;" parent="WIyWlLk6GJQsqaUBKTNV-1" vertex="1">
          <mxGeometry x="165" y="468" width="100" height="40" as="geometry" />
        </mxCell>
        <mxCell id="H3Cdm3-sJ10uSfkxJZ9I-23" value="includes" style="rhombus;whiteSpace=wrap;html=1;" parent="WIyWlLk6GJQsqaUBKTNV-1" vertex="1">
          <mxGeometry x="250" y="514.5" width="50" height="50" as="geometry" />
        </mxCell>
        <mxCell id="H3Cdm3-sJ10uSfkxJZ9I-24" value="M" style="text;html=1;align=center;verticalAlign=middle;resizable=0;points=[];autosize=1;strokeColor=none;fillColor=none;" parent="WIyWlLk6GJQsqaUBKTNV-1" vertex="1">
          <mxGeometry x="265" y="488" width="30" height="30" as="geometry" />
        </mxCell>
        <mxCell id="H3Cdm3-sJ10uSfkxJZ9I-25" value="N" style="text;html=1;align=center;verticalAlign=middle;resizable=0;points=[];autosize=1;strokeColor=none;fillColor=none;" parent="WIyWlLk6GJQsqaUBKTNV-1" vertex="1">
          <mxGeometry x="285" y="558" width="30" height="30" as="geometry" />
        </mxCell>
        <mxCell id="H3Cdm3-sJ10uSfkxJZ9I-27" value="&lt;u&gt;id&lt;/u&gt;" style="ellipse;whiteSpace=wrap;html=1;" parent="WIyWlLk6GJQsqaUBKTNV-1" vertex="1">
          <mxGeometry x="-115" y="608" width="60" height="52" as="geometry" />
        </mxCell>
        <mxCell id="H3Cdm3-sJ10uSfkxJZ9I-30" style="edgeStyle=orthogonalEdgeStyle;rounded=0;orthogonalLoop=1;jettySize=auto;html=1;exitX=1;exitY=1;exitDx=0;exitDy=0;entryX=0;entryY=0.5;entryDx=0;entryDy=0;endArrow=none;endFill=0;" parent="WIyWlLk6GJQsqaUBKTNV-1" source="H3Cdm3-sJ10uSfkxJZ9I-29" target="jLqvvXUT3RwbvUkJ_NoB-78" edge="1">
          <mxGeometry relative="1" as="geometry" />
        </mxCell>
        <mxCell id="H3Cdm3-sJ10uSfkxJZ9I-32" style="edgeStyle=orthogonalEdgeStyle;rounded=0;orthogonalLoop=1;jettySize=auto;html=1;exitX=0.5;exitY=1;exitDx=0;exitDy=0;entryX=0.5;entryY=0;entryDx=0;entryDy=0;endArrow=none;endFill=0;shape=link;" parent="WIyWlLk6GJQsqaUBKTNV-1" source="H3Cdm3-sJ10uSfkxJZ9I-29" target="H3Cdm3-sJ10uSfkxJZ9I-33" edge="1">
          <mxGeometry relative="1" as="geometry" />
        </mxCell>
        <mxCell id="H3Cdm3-sJ10uSfkxJZ9I-29" value="trip realization" style="shape=ext;margin=3;double=1;whiteSpace=wrap;html=1;align=center;" parent="WIyWlLk6GJQsqaUBKTNV-1" vertex="1">
          <mxGeometry x="10" y="308" width="100" height="40" as="geometry" />
        </mxCell>
        <mxCell id="H3Cdm3-sJ10uSfkxJZ9I-31" value="N" style="text;html=1;align=center;verticalAlign=middle;resizable=0;points=[];autosize=1;strokeColor=none;fillColor=none;" parent="WIyWlLk6GJQsqaUBKTNV-1" vertex="1">
          <mxGeometry x="105" y="338" width="30" height="30" as="geometry" />
        </mxCell>
        <mxCell id="H3Cdm3-sJ10uSfkxJZ9I-35" style="edgeStyle=orthogonalEdgeStyle;rounded=0;orthogonalLoop=1;jettySize=auto;html=1;exitX=0.5;exitY=1;exitDx=0;exitDy=0;endArrow=none;endFill=0;" parent="WIyWlLk6GJQsqaUBKTNV-1" source="H3Cdm3-sJ10uSfkxJZ9I-33" target="jLqvvXUT3RwbvUkJ_NoB-33" edge="1">
          <mxGeometry relative="1" as="geometry" />
        </mxCell>
        <mxCell id="H3Cdm3-sJ10uSfkxJZ9I-33" value="happens" style="shape=rhombus;perimeter=rhombusPerimeter;whiteSpace=wrap;html=1;align=center;" parent="WIyWlLk6GJQsqaUBKTNV-1" vertex="1">
          <mxGeometry y="428" width="120" height="60" as="geometry" />
        </mxCell>
        <mxCell id="H3Cdm3-sJ10uSfkxJZ9I-36" value="M" style="text;html=1;align=center;verticalAlign=middle;resizable=0;points=[];autosize=1;strokeColor=none;fillColor=none;" parent="WIyWlLk6GJQsqaUBKTNV-1" vertex="1">
          <mxGeometry x="55" y="348" width="30" height="30" as="geometry" />
        </mxCell>
        <mxCell id="3NceoRWMFwt2miOS7xl8-1" style="edgeStyle=orthogonalEdgeStyle;rounded=0;orthogonalLoop=1;jettySize=auto;html=1;exitX=1;exitY=0.5;exitDx=0;exitDy=0;entryX=0;entryY=0.5;entryDx=0;entryDy=0;endArrow=none;endFill=0;shape=link;" edge="1" parent="WIyWlLk6GJQsqaUBKTNV-1" source="3NceoRWMFwt2miOS7xl8-2" target="jLqvvXUT3RwbvUkJ_NoB-33">
          <mxGeometry relative="1" as="geometry" />
        </mxCell>
        <mxCell id="3NceoRWMFwt2miOS7xl8-5" style="edgeStyle=orthogonalEdgeStyle;rounded=0;orthogonalLoop=1;jettySize=auto;html=1;exitX=0;exitY=0.5;exitDx=0;exitDy=0;entryX=1;entryY=0.5;entryDx=0;entryDy=0;endArrow=none;endFill=0;" edge="1" parent="WIyWlLk6GJQsqaUBKTNV-1" source="3NceoRWMFwt2miOS7xl8-0" target="3NceoRWMFwt2miOS7xl8-4">
          <mxGeometry relative="1" as="geometry" />
        </mxCell>
        <mxCell id="3NceoRWMFwt2miOS7xl8-0" value="category" style="rounded=0;whiteSpace=wrap;html=1;" vertex="1" parent="WIyWlLk6GJQsqaUBKTNV-1">
          <mxGeometry x="-280" y="532" width="120" height="60" as="geometry" />
        </mxCell>
        <mxCell id="3NceoRWMFwt2miOS7xl8-3" value="" style="edgeStyle=orthogonalEdgeStyle;rounded=0;orthogonalLoop=1;jettySize=auto;html=1;exitX=1;exitY=0.5;exitDx=0;exitDy=0;entryX=0;entryY=0.5;entryDx=0;entryDy=0;endArrow=none;endFill=0;" edge="1" parent="WIyWlLk6GJQsqaUBKTNV-1" source="3NceoRWMFwt2miOS7xl8-0" target="3NceoRWMFwt2miOS7xl8-2">
          <mxGeometry relative="1" as="geometry">
            <mxPoint x="-150" y="558" as="sourcePoint" />
            <mxPoint x="10" y="570" as="targetPoint" />
          </mxGeometry>
        </mxCell>
        <mxCell id="3NceoRWMFwt2miOS7xl8-2" value="belongs to" style="rhombus;whiteSpace=wrap;html=1;" vertex="1" parent="WIyWlLk6GJQsqaUBKTNV-1">
          <mxGeometry x="-110" y="526" width="70" height="72" as="geometry" />
        </mxCell>
        <mxCell id="3NceoRWMFwt2miOS7xl8-8" style="edgeStyle=orthogonalEdgeStyle;rounded=0;orthogonalLoop=1;jettySize=auto;html=1;exitX=0;exitY=0;exitDx=0;exitDy=0;entryX=1;entryY=0.5;entryDx=0;entryDy=0;endArrow=none;endFill=0;" edge="1" parent="WIyWlLk6GJQsqaUBKTNV-1" source="3NceoRWMFwt2miOS7xl8-4" target="3NceoRWMFwt2miOS7xl8-7">
          <mxGeometry relative="1" as="geometry" />
        </mxCell>
        <mxCell id="3NceoRWMFwt2miOS7xl8-9" value="U" style="edgeLabel;html=1;align=center;verticalAlign=middle;resizable=0;points=[];" vertex="1" connectable="0" parent="3NceoRWMFwt2miOS7xl8-8">
          <mxGeometry x="0.1658" y="-2" relative="1" as="geometry">
            <mxPoint as="offset" />
          </mxGeometry>
        </mxCell>
        <mxCell id="3NceoRWMFwt2miOS7xl8-10" style="edgeStyle=orthogonalEdgeStyle;rounded=0;orthogonalLoop=1;jettySize=auto;html=1;exitX=0.5;exitY=1;exitDx=0;exitDy=0;entryX=1;entryY=0.5;entryDx=0;entryDy=0;endArrow=none;endFill=0;" edge="1" parent="WIyWlLk6GJQsqaUBKTNV-1" source="3NceoRWMFwt2miOS7xl8-4" target="3NceoRWMFwt2miOS7xl8-6">
          <mxGeometry relative="1" as="geometry" />
        </mxCell>
        <mxCell id="3NceoRWMFwt2miOS7xl8-11" value="U" style="edgeLabel;html=1;align=center;verticalAlign=middle;resizable=0;points=[];" vertex="1" connectable="0" parent="3NceoRWMFwt2miOS7xl8-10">
          <mxGeometry x="0.0233" relative="1" as="geometry">
            <mxPoint as="offset" />
          </mxGeometry>
        </mxCell>
        <mxCell id="3NceoRWMFwt2miOS7xl8-4" value="d" style="ellipse;whiteSpace=wrap;html=1;aspect=fixed;" vertex="1" parent="WIyWlLk6GJQsqaUBKTNV-1">
          <mxGeometry x="-380" y="543" width="30" height="30" as="geometry" />
        </mxCell>
        <mxCell id="3NceoRWMFwt2miOS7xl8-6" value="without faculty" style="rounded=0;whiteSpace=wrap;html=1;" vertex="1" parent="WIyWlLk6GJQsqaUBKTNV-1">
          <mxGeometry x="-610" y="608" width="90" height="50" as="geometry" />
        </mxCell>
        <mxCell id="3NceoRWMFwt2miOS7xl8-12" style="edgeStyle=orthogonalEdgeStyle;rounded=0;orthogonalLoop=1;jettySize=auto;html=1;exitX=0.75;exitY=0;exitDx=0;exitDy=0;entryX=0;entryY=0.75;entryDx=0;entryDy=0;endArrow=none;endFill=0;" edge="1" parent="WIyWlLk6GJQsqaUBKTNV-1" source="3NceoRWMFwt2miOS7xl8-14" target="H3Cdm3-sJ10uSfkxJZ9I-21">
          <mxGeometry relative="1" as="geometry">
            <Array as="points">
              <mxPoint x="-167" y="450" />
              <mxPoint x="-167" y="498" />
            </Array>
          </mxGeometry>
        </mxCell>
        <mxCell id="3NceoRWMFwt2miOS7xl8-7" value="with faculty" style="rounded=0;whiteSpace=wrap;html=1;" vertex="1" parent="WIyWlLk6GJQsqaUBKTNV-1">
          <mxGeometry x="-620" y="450" width="120" height="60" as="geometry" />
        </mxCell>
        <mxCell id="3NceoRWMFwt2miOS7xl8-13" value="" style="edgeStyle=orthogonalEdgeStyle;rounded=0;orthogonalLoop=1;jettySize=auto;html=1;exitX=0.75;exitY=0;exitDx=0;exitDy=0;entryX=0;entryY=0.75;entryDx=0;entryDy=0;endArrow=none;endFill=0;" edge="1" parent="WIyWlLk6GJQsqaUBKTNV-1" source="3NceoRWMFwt2miOS7xl8-7" target="3NceoRWMFwt2miOS7xl8-14">
          <mxGeometry relative="1" as="geometry">
            <mxPoint x="-530" y="450" as="sourcePoint" />
            <mxPoint x="165" y="498" as="targetPoint" />
            <Array as="points" />
          </mxGeometry>
        </mxCell>
        <mxCell id="3NceoRWMFwt2miOS7xl8-14" value="includes the visit" style="rhombus;whiteSpace=wrap;html=1;" vertex="1" parent="WIyWlLk6GJQsqaUBKTNV-1">
          <mxGeometry x="-200" y="441" width="80" height="80" as="geometry" />
        </mxCell>
        <mxCell id="3NceoRWMFwt2miOS7xl8-15" value="N" style="text;html=1;align=center;verticalAlign=middle;resizable=0;points=[];autosize=1;strokeColor=none;fillColor=none;" vertex="1" parent="WIyWlLk6GJQsqaUBKTNV-1">
          <mxGeometry x="-535" y="398" width="30" height="30" as="geometry" />
        </mxCell>
        <mxCell id="3NceoRWMFwt2miOS7xl8-16" value="0-M" style="text;html=1;align=center;verticalAlign=middle;resizable=0;points=[];autosize=1;strokeColor=none;fillColor=none;" vertex="1" parent="WIyWlLk6GJQsqaUBKTNV-1">
          <mxGeometry x="130" y="478" width="40" height="30" as="geometry" />
        </mxCell>
        <mxCell id="3NceoRWMFwt2miOS7xl8-27" style="edgeStyle=orthogonalEdgeStyle;rounded=0;orthogonalLoop=1;jettySize=auto;html=1;exitX=1;exitY=0.5;exitDx=0;exitDy=0;" edge="1" parent="WIyWlLk6GJQsqaUBKTNV-1">
          <mxGeometry relative="1" as="geometry">
            <mxPoint x="920" y="1100" as="targetPoint" />
            <mxPoint x="720" y="699.9999999999998" as="sourcePoint" />
          </mxGeometry>
        </mxCell>
        <mxCell id="3NceoRWMFwt2miOS7xl8-41" style="edgeStyle=orthogonalEdgeStyle;rounded=0;orthogonalLoop=1;jettySize=auto;html=1;exitX=0.25;exitY=0;exitDx=0;exitDy=0;" edge="1" parent="WIyWlLk6GJQsqaUBKTNV-1" source="3NceoRWMFwt2miOS7xl8-46">
          <mxGeometry relative="1" as="geometry">
            <mxPoint x="610" y="629.9999999999998" as="targetPoint" />
            <mxPoint x="630" y="669.9999999999998" as="sourcePoint" />
          </mxGeometry>
        </mxCell>
        <mxCell id="3NceoRWMFwt2miOS7xl8-45" style="edgeStyle=orthogonalEdgeStyle;rounded=0;orthogonalLoop=1;jettySize=auto;html=1;exitX=0;exitY=0.5;exitDx=0;exitDy=0;entryX=1;entryY=0.5;entryDx=0;entryDy=0;endArrow=none;endFill=0;" edge="1" parent="WIyWlLk6GJQsqaUBKTNV-1" target="3NceoRWMFwt2miOS7xl8-19">
          <mxGeometry relative="1" as="geometry">
            <mxPoint x="600" y="699.9999999999998" as="sourcePoint" />
          </mxGeometry>
        </mxCell>
        <mxCell id="3NceoRWMFwt2miOS7xl8-19" value="offers&lt;br&gt;" style="rhombus;whiteSpace=wrap;html=1;" vertex="1" parent="WIyWlLk6GJQsqaUBKTNV-1">
          <mxGeometry x="400" y="660" width="80" height="80" as="geometry" />
        </mxCell>
        <mxCell id="3NceoRWMFwt2miOS7xl8-20" value="1" style="text;html=1;align=center;verticalAlign=middle;resizable=0;points=[];autosize=1;strokeColor=none;fillColor=none;" vertex="1" parent="WIyWlLk6GJQsqaUBKTNV-1">
          <mxGeometry x="115" y="680" width="30" height="30" as="geometry" />
        </mxCell>
        <mxCell id="3NceoRWMFwt2miOS7xl8-21" value="M" style="text;html=1;align=center;verticalAlign=middle;resizable=0;points=[];autosize=1;strokeColor=none;fillColor=none;" vertex="1" parent="WIyWlLk6GJQsqaUBKTNV-1">
          <mxGeometry x="570" y="670" width="30" height="30" as="geometry" />
        </mxCell>
        <mxCell id="3NceoRWMFwt2miOS7xl8-23" value="books" style="rhombus;whiteSpace=wrap;html=1;" vertex="1" parent="WIyWlLk6GJQsqaUBKTNV-1">
          <mxGeometry x="650" y="367" width="80" height="80" as="geometry" />
        </mxCell>
        <mxCell id="3NceoRWMFwt2miOS7xl8-24" value="1" style="text;html=1;align=center;verticalAlign=middle;resizable=0;points=[];autosize=1;strokeColor=none;fillColor=none;" vertex="1" parent="WIyWlLk6GJQsqaUBKTNV-1">
          <mxGeometry x="690" y="640" width="30" height="30" as="geometry" />
        </mxCell>
        <mxCell id="3NceoRWMFwt2miOS7xl8-25" value="1" style="text;html=1;align=center;verticalAlign=middle;resizable=0;points=[];autosize=1;strokeColor=none;fillColor=none;" vertex="1" parent="WIyWlLk6GJQsqaUBKTNV-1">
          <mxGeometry x="405" y="228" width="30" height="30" as="geometry" />
        </mxCell>
        <mxCell id="3NceoRWMFwt2miOS7xl8-29" value="belongs to" style="rhombus;whiteSpace=wrap;html=1;" vertex="1" parent="WIyWlLk6GJQsqaUBKTNV-1">
          <mxGeometry x="880" y="1060" width="80" height="80" as="geometry" />
        </mxCell>
        <mxCell id="3NceoRWMFwt2miOS7xl8-30" value="M" style="text;html=1;align=center;verticalAlign=middle;resizable=0;points=[];autosize=1;strokeColor=none;fillColor=none;" vertex="1" parent="WIyWlLk6GJQsqaUBKTNV-1">
          <mxGeometry x="725" y="678" width="30" height="30" as="geometry" />
        </mxCell>
        <mxCell id="3NceoRWMFwt2miOS7xl8-31" value="M" style="text;html=1;align=center;verticalAlign=middle;resizable=0;points=[];autosize=1;strokeColor=none;fillColor=none;" vertex="1" parent="WIyWlLk6GJQsqaUBKTNV-1">
          <mxGeometry x="225" y="938" width="30" height="30" as="geometry" />
        </mxCell>
        <mxCell id="3NceoRWMFwt2miOS7xl8-32" value="1" style="text;html=1;align=center;verticalAlign=middle;resizable=0;points=[];autosize=1;strokeColor=none;fillColor=none;" vertex="1" parent="WIyWlLk6GJQsqaUBKTNV-1">
          <mxGeometry x="-165" y="538" width="30" height="30" as="geometry" />
        </mxCell>
        <mxCell id="3NceoRWMFwt2miOS7xl8-34" value="N" style="text;html=1;align=center;verticalAlign=middle;resizable=0;points=[];autosize=1;strokeColor=none;fillColor=none;" vertex="1" parent="WIyWlLk6GJQsqaUBKTNV-1">
          <mxGeometry x="-20" y="538" width="30" height="30" as="geometry" />
        </mxCell>
        <mxCell id="3NceoRWMFwt2miOS7xl8-43" style="edgeStyle=orthogonalEdgeStyle;rounded=0;orthogonalLoop=1;jettySize=auto;html=1;exitX=0.75;exitY=0;exitDx=0;exitDy=0;" edge="1" parent="WIyWlLk6GJQsqaUBKTNV-1" source="3NceoRWMFwt2miOS7xl8-36">
          <mxGeometry relative="1" as="geometry">
            <mxPoint x="440.1176470588234" y="1040" as="targetPoint" />
          </mxGeometry>
        </mxCell>
        <mxCell id="3NceoRWMFwt2miOS7xl8-53" style="edgeStyle=orthogonalEdgeStyle;rounded=0;orthogonalLoop=1;jettySize=auto;html=1;exitX=0.25;exitY=1;exitDx=0;exitDy=0;endArrow=none;endFill=0;" edge="1" parent="WIyWlLk6GJQsqaUBKTNV-1" source="3NceoRWMFwt2miOS7xl8-36">
          <mxGeometry relative="1" as="geometry">
            <mxPoint x="30" y="1140" as="targetPoint" />
            <Array as="points">
              <mxPoint x="380" y="1150" />
              <mxPoint x="190" y="1150" />
              <mxPoint x="190" y="1140" />
            </Array>
          </mxGeometry>
        </mxCell>
        <mxCell id="3NceoRWMFwt2miOS7xl8-36" value="hotel" style="rounded=0;whiteSpace=wrap;html=1;" vertex="1" parent="WIyWlLk6GJQsqaUBKTNV-1">
          <mxGeometry x="350" y="1070" width="120" height="60" as="geometry" />
        </mxCell>
        <mxCell id="3NceoRWMFwt2miOS7xl8-37" value="1" style="text;html=1;align=center;verticalAlign=middle;resizable=0;points=[];autosize=1;strokeColor=none;fillColor=none;" vertex="1" parent="WIyWlLk6GJQsqaUBKTNV-1">
          <mxGeometry x="465" y="1068" width="30" height="30" as="geometry" />
        </mxCell>
        <mxCell id="3NceoRWMFwt2miOS7xl8-38" value="is located in" style="rhombus;whiteSpace=wrap;html=1;" vertex="1" parent="WIyWlLk6GJQsqaUBKTNV-1">
          <mxGeometry x="180" y="1050" width="80" height="80" as="geometry" />
        </mxCell>
        <mxCell id="3NceoRWMFwt2miOS7xl8-39" value="1" style="text;html=1;align=center;verticalAlign=middle;resizable=0;points=[];autosize=1;strokeColor=none;fillColor=none;" vertex="1" parent="WIyWlLk6GJQsqaUBKTNV-1">
          <mxGeometry x="195" y="938" width="30" height="30" as="geometry" />
        </mxCell>
        <mxCell id="3NceoRWMFwt2miOS7xl8-40" value="M" style="text;html=1;align=center;verticalAlign=middle;resizable=0;points=[];autosize=1;strokeColor=none;fillColor=none;" vertex="1" parent="WIyWlLk6GJQsqaUBKTNV-1">
          <mxGeometry x="325" y="1078" width="30" height="30" as="geometry" />
        </mxCell>
        <mxCell id="3NceoRWMFwt2miOS7xl8-42" value="&lt;u&gt;id&lt;/u&gt;" style="ellipse;whiteSpace=wrap;html=1;" vertex="1" parent="WIyWlLk6GJQsqaUBKTNV-1">
          <mxGeometry x="545" y="565" width="120" height="80" as="geometry" />
        </mxCell>
        <mxCell id="3NceoRWMFwt2miOS7xl8-44" value="&lt;u&gt;id&lt;/u&gt;" style="ellipse;whiteSpace=wrap;html=1;" vertex="1" parent="WIyWlLk6GJQsqaUBKTNV-1">
          <mxGeometry x="380" y="970" width="120" height="80" as="geometry" />
        </mxCell>
        <mxCell id="3NceoRWMFwt2miOS7xl8-46" value="rezervation" style="shape=ext;margin=3;double=1;whiteSpace=wrap;html=1;align=center;" vertex="1" parent="WIyWlLk6GJQsqaUBKTNV-1">
          <mxGeometry x="600" y="678" width="120" height="52" as="geometry" />
        </mxCell>
        <mxCell id="3NceoRWMFwt2miOS7xl8-52" style="edgeStyle=orthogonalEdgeStyle;rounded=0;orthogonalLoop=1;jettySize=auto;html=1;exitX=0.5;exitY=1;exitDx=0;exitDy=0;endArrow=none;endFill=0;" edge="1" parent="WIyWlLk6GJQsqaUBKTNV-1" source="3NceoRWMFwt2miOS7xl8-48">
          <mxGeometry relative="1" as="geometry">
            <mxPoint x="30" y="1141.1764705882354" as="targetPoint" />
          </mxGeometry>
        </mxCell>
        <mxCell id="3NceoRWMFwt2miOS7xl8-48" value="offers reservations in" style="shape=rhombus;perimeter=rhombusPerimeter;whiteSpace=wrap;html=1;align=center;" vertex="1" parent="WIyWlLk6GJQsqaUBKTNV-1">
          <mxGeometry x="-20" y="880" width="120" height="60" as="geometry" />
        </mxCell>
        <mxCell id="3NceoRWMFwt2miOS7xl8-50" value="N" style="text;html=1;align=center;verticalAlign=middle;resizable=0;points=[];autosize=1;strokeColor=none;fillColor=none;" vertex="1" parent="WIyWlLk6GJQsqaUBKTNV-1">
          <mxGeometry x="25" y="748" width="30" height="30" as="geometry" />
        </mxCell>
        <mxCell id="3NceoRWMFwt2miOS7xl8-51" value="M" style="text;html=1;align=center;verticalAlign=middle;resizable=0;points=[];autosize=1;strokeColor=none;fillColor=none;" vertex="1" parent="WIyWlLk6GJQsqaUBKTNV-1">
          <mxGeometry x="105" y="878" width="30" height="30" as="geometry" />
        </mxCell>
      </root>
    </mxGraphModel>
  </diagram>
</mxfile>
